<?xml version="1.0" encoding="utf-8"?>
<!-- Generator: Adobe Illustrator 24.0.1, SVG Export Plug-In . SVG Version: 6.00 Build 0)  -->
<svg version="1.1" id="Layer_1" xmlns="http://www.w3.org/2000/svg" xmlns:xlink="http://www.w3.org/1999/xlink" x="0px" y="0px"
	 viewBox="0 0 18.3 18.3" enable-background="new 0 0 18.3 18.3" xml:space="preserve">
<path fill="#E8412E" d="M9.1,0.5c-4.7,0-8.6,3.9-8.6,8.6s3.9,8.6,8.6,8.6c4.7,0,8.6-3.9,8.6-8.6S13.8,0.5,9.1,0.5z M12.6,9.9L7.2,13
	c-0.3,0.1-0.5,0.2-0.6,0.2c-0.2,0-0.4,0-0.5-0.2c-0.1-0.1-0.2-0.3-0.2-0.5s0.2-0.4,0.4-0.5L11,9.3L6.3,6.5C6.1,6.4,6,6.2,6,6
	c0-0.1,0-0.3,0.2-0.5c0.1-0.1,0.2-0.2,0.4-0.2c0.1,0,0.3,0,0.4,0.1c0.2,0,0.3,0.1,0.3,0.1l5.3,3.1C12.9,8.8,13,9,13,9.3
	S12.9,9.8,12.6,9.9z"/>
</svg>
