<?xml version="1.0" encoding="utf-8"?>
<!-- Generator: Adobe Illustrator 24.0.1, SVG Export Plug-In . SVG Version: 6.00 Build 0)  -->
<svg version="1.1" id="Layer_1" xmlns="http://www.w3.org/2000/svg" xmlns:xlink="http://www.w3.org/1999/xlink" x="0px" y="0px"
	 viewBox="0 0 125.4 66.6" enable-background="new 0 0 125.4 66.6" xml:space="preserve">
<g>
	<path fill="#E8412E" d="M0,0h13.4l8.3,13.5L29.9,0h13.4v38.5H30.5V19.4l-8.9,13.7h-0.2l-8.9-13.7v19.1H0V0z"/>
	<path fill="#2B1818" d="M0,43.7h10.1c6,0,10,2.7,10,8v0.1c0,5.4-4.1,8.3-10.2,8.3H7.5v6.1H0V43.7z M9.5,54.7c1.9,0,3.2-0.9,3.2-2.5
		v-0.1c0-1.6-1.2-2.5-3.2-2.5H7.5v5H9.5z"/>
	<path fill="#2B1818" d="M45,43.7h7.9L56,54.5l3.6-10.8h6.5l3.6,10.8l3.2-10.8h7.7l-7.3,22.6h-6.5l-3.9-11.2l-3.9,11.2h-6.5L45,43.7
		z"/>
	<path fill="#2B1818" d="M81.7,43.7h19.1v6.2H89v2.3h11v5.4H89V60h11.9v6.2H81.7V43.7z"/>
	<path fill="#2B1818" d="M103.5,43.7h11c4,0,6.5,1,8.1,2.6c1.3,1.3,2.1,3,2.1,5.3v0.1c0,3.3-1.7,5.5-4.4,6.9l5.2,7.6h-8.6l-4.2-6.4
		h-0.1H111v6.4h-7.5V43.7z M114.3,54.4c1.8,0,2.9-0.8,2.9-2.2v-0.1c0-1.4-1.1-2.1-2.9-2.1H111v4.4H114.3z"/>
	<path fill="#2B1818" d="M45.5,54.9L45.5,54.9c0,6.6-5.4,11.8-12.3,11.8S21,61.5,21,55v-0.1c0-6.5,5.4-11.7,12.3-11.7
		S45.5,48.4,45.5,54.9z M29.7,64.4L40.5,54l-6.9,0l3.2-8.5L25.9,55.9l6.9,0L29.7,64.4z"/>
	<path fill="#E8412E" d="M89.3,0h35.8v10.6h-22v3.9h20.5v9.3h-20.5V28h22.3v10.6H89.3V0z"/>
</g>
<path fill="#E8412E" d="M62.3,28h22v10.6H48.5V0l13.8,0L62.3,28z"/>
</svg>
